<mxfile host="65bd71144e">
    <diagram id="VainRKhlihIqHC2jC23O" name="Automat">
        <mxGraphModel dx="1152" dy="987" grid="1" gridSize="10" guides="1" tooltips="1" connect="1" arrows="1" fold="1" page="1" pageScale="1" pageWidth="850" pageHeight="1100" math="0" shadow="0">
            <root>
                <mxCell id="0"/>
                <mxCell id="1" parent="0"/>
                <mxCell id="6" value="&amp;lt;A&amp;gt;" style="edgeStyle=none;html=1;exitX=1;exitY=0.25;exitDx=0;exitDy=0;entryX=0;entryY=0.5;entryDx=0;entryDy=0;fontFamily=Courier New;fontSize=20;" parent="1" source="2" target="4" edge="1">
                    <mxGeometry relative="1" as="geometry"/>
                </mxCell>
                <mxCell id="9" value="&amp;lt;B&amp;gt;" style="edgeStyle=none;html=1;entryX=0.5;entryY=0;entryDx=0;entryDy=0;fontFamily=Courier New;fontSize=20;" parent="1" source="2" target="7" edge="1">
                    <mxGeometry relative="1" as="geometry"/>
                </mxCell>
                <mxCell id="13" value="&amp;lt;S&amp;gt;" style="edgeStyle=none;html=1;exitX=1;exitY=0.75;exitDx=0;exitDy=0;entryX=0;entryY=0.5;entryDx=0;entryDy=0;fontFamily=Courier New;fontSize=20;" parent="1" source="2" target="11" edge="1">
                    <mxGeometry relative="1" as="geometry"/>
                </mxCell>
                <mxCell id="2" value="&lt;pre style=&quot;font-size: 20px&quot;&gt;&amp;lt;S'&amp;gt; → • &amp;lt;S&amp;gt; ─┤&lt;br&gt;&amp;lt;S&amp;gt; → • &amp;lt;S&amp;gt; b &amp;lt;A&amp;gt;&lt;br&gt;&amp;lt;S&amp;gt; → • &amp;lt;A&amp;gt; a &amp;lt;B&amp;gt; b&lt;br&gt;&amp;lt;A&amp;gt; → • &amp;lt;B&amp;gt; c &amp;lt;B&amp;gt; d&lt;br&gt;&amp;lt;A&amp;gt; → •&lt;br&gt;&amp;lt;B&amp;gt; → •&lt;/pre&gt;" style="rounded=0;whiteSpace=wrap;html=1;align=left;" parent="1" vertex="1">
                    <mxGeometry x="80" y="120" width="240" height="160" as="geometry"/>
                </mxCell>
                <mxCell id="3" value="&lt;pre style=&quot;font-size: 20px&quot;&gt;&amp;lt;S'&amp;gt;&lt;sub&gt;0&lt;/sub&gt;&lt;/pre&gt;" style="rounded=0;whiteSpace=wrap;html=1;" parent="1" vertex="1">
                    <mxGeometry x="80" y="80" width="80" height="40" as="geometry"/>
                </mxCell>
                <mxCell id="28" value="a" style="edgeStyle=none;html=1;entryX=0;entryY=0.5;entryDx=0;entryDy=0;fontFamily=Courier New;fontSize=20;" parent="1" source="4" target="26" edge="1">
                    <mxGeometry relative="1" as="geometry"/>
                </mxCell>
                <mxCell id="4" value="&lt;pre style=&quot;font-size: 20px&quot;&gt;&lt;pre&gt;&amp;lt;S&amp;gt; → &amp;lt;A&amp;gt; • a &amp;lt;B&amp;gt; b&lt;br&gt;&lt;/pre&gt;&lt;/pre&gt;" style="rounded=0;whiteSpace=wrap;html=1;align=left;" parent="1" vertex="1">
                    <mxGeometry x="400" y="140" width="240" height="40" as="geometry"/>
                </mxCell>
                <mxCell id="5" value="&lt;pre style=&quot;font-size: 20px&quot;&gt;&amp;lt;A&amp;gt;&lt;sub&gt;2&lt;/sub&gt;&lt;/pre&gt;" style="rounded=0;whiteSpace=wrap;html=1;" parent="1" vertex="1">
                    <mxGeometry x="400" y="100" width="80" height="40" as="geometry"/>
                </mxCell>
                <mxCell id="19" value="c" style="edgeStyle=none;html=1;entryX=0.5;entryY=0;entryDx=0;entryDy=0;fontFamily=Courier New;fontSize=20;" parent="1" source="7" target="17" edge="1">
                    <mxGeometry relative="1" as="geometry"/>
                </mxCell>
                <mxCell id="7" value="&lt;pre style=&quot;font-size: 20px&quot;&gt;&lt;pre&gt;&amp;lt;A&amp;gt; → &amp;lt;B&amp;gt; • c &amp;lt;B&amp;gt; d&lt;br&gt;&lt;/pre&gt;&lt;/pre&gt;" style="rounded=0;whiteSpace=wrap;html=1;align=left;" parent="1" vertex="1">
                    <mxGeometry x="80" y="360" width="240" height="40" as="geometry"/>
                </mxCell>
                <mxCell id="8" value="&lt;pre style=&quot;font-size: 20px&quot;&gt;&amp;lt;B&amp;gt;&lt;sub&gt;31&lt;/sub&gt;&lt;/pre&gt;" style="rounded=0;whiteSpace=wrap;html=1;" parent="1" vertex="1">
                    <mxGeometry x="80" y="320" width="80" height="40" as="geometry"/>
                </mxCell>
                <mxCell id="16" value="─┤" style="edgeStyle=none;html=1;entryX=0;entryY=0.5;entryDx=0;entryDy=0;fontFamily=Courier New;fontSize=20;" parent="1" source="10" target="14" edge="1">
                    <mxGeometry relative="1" as="geometry">
                        <mxPoint as="offset"/>
                    </mxGeometry>
                </mxCell>
                <mxCell id="37" value="b" style="edgeStyle=none;html=1;entryX=0;entryY=0.5;entryDx=0;entryDy=0;fontFamily=Courier New;fontSize=20;" parent="1" source="10" target="35" edge="1">
                    <mxGeometry relative="1" as="geometry">
                        <Array as="points">
                            <mxPoint x="520" y="460"/>
                        </Array>
                    </mxGeometry>
                </mxCell>
                <mxCell id="10" value="&lt;pre style=&quot;font-size: 20px&quot;&gt;&lt;pre&gt;&amp;lt;S'&amp;gt; → &amp;lt;S&amp;gt; • ─┤&lt;br&gt;&amp;lt;S&amp;gt; → &amp;lt;S&amp;gt; • b &amp;lt;A&amp;gt;&lt;br&gt;&lt;/pre&gt;&lt;/pre&gt;" style="rounded=0;whiteSpace=wrap;html=1;align=left;" parent="1" vertex="1">
                    <mxGeometry x="400" y="260" width="240" height="60" as="geometry"/>
                </mxCell>
                <mxCell id="11" value="&lt;pre style=&quot;font-size: 20px&quot;&gt;&amp;lt;S&amp;gt;&lt;sub&gt;x&lt;/sub&gt;&lt;/pre&gt;" style="rounded=0;whiteSpace=wrap;html=1;" parent="1" vertex="1">
                    <mxGeometry x="400" y="220" width="80" height="40" as="geometry"/>
                </mxCell>
                <mxCell id="14" value="&lt;pre style=&quot;font-size: 20px&quot;&gt;&lt;pre&gt;&amp;lt;S'&amp;gt; → &amp;lt;S&amp;gt; ─┤ •&lt;/pre&gt;&lt;/pre&gt;" style="rounded=0;whiteSpace=wrap;html=1;align=left;" parent="1" vertex="1">
                    <mxGeometry x="720" y="270" width="200" height="40" as="geometry"/>
                </mxCell>
                <mxCell id="15" value="&lt;pre style=&quot;font-size: 20px&quot;&gt;─┤&lt;sub&gt;0&lt;/sub&gt;&lt;/pre&gt;" style="rounded=0;whiteSpace=wrap;html=1;" parent="1" vertex="1">
                    <mxGeometry x="720" y="230" width="80" height="40" as="geometry"/>
                </mxCell>
                <mxCell id="22" value="&amp;lt;B&amp;gt;" style="edgeStyle=none;html=1;entryX=0;entryY=0.5;entryDx=0;entryDy=0;fontFamily=Courier New;fontSize=20;" parent="1" source="17" target="20" edge="1">
                    <mxGeometry relative="1" as="geometry"/>
                </mxCell>
                <mxCell id="17" value="&lt;pre style=&quot;font-size: 20px&quot;&gt;&lt;pre&gt;&amp;lt;A&amp;gt; → &amp;lt;B&amp;gt; c • &amp;lt;B&amp;gt; d&lt;br/&gt;&amp;lt;B&amp;gt; → •&lt;/pre&gt;&lt;/pre&gt;" style="rounded=0;whiteSpace=wrap;html=1;align=left;" parent="1" vertex="1">
                    <mxGeometry x="80" y="480" width="240" height="80" as="geometry"/>
                </mxCell>
                <mxCell id="18" value="&lt;pre style=&quot;font-size: 20px&quot;&gt;c&lt;sub&gt;3&lt;/sub&gt;&lt;/pre&gt;" style="rounded=0;whiteSpace=wrap;html=1;" parent="1" vertex="1">
                    <mxGeometry x="80" y="440" width="80" height="40" as="geometry"/>
                </mxCell>
                <mxCell id="25" value="d" style="edgeStyle=none;html=1;entryX=0.5;entryY=0;entryDx=0;entryDy=0;fontFamily=Courier New;fontSize=20;" parent="1" source="20" target="23" edge="1">
                    <mxGeometry relative="1" as="geometry"/>
                </mxCell>
                <mxCell id="20" value="&lt;pre style=&quot;font-size: 20px&quot;&gt;&lt;pre&gt;&amp;lt;A&amp;gt; → &amp;lt;B&amp;gt; c &amp;lt;B&amp;gt; • d&lt;/pre&gt;&lt;/pre&gt;" style="rounded=0;whiteSpace=wrap;html=1;align=left;" parent="1" vertex="1">
                    <mxGeometry x="400" y="500" width="240" height="40" as="geometry"/>
                </mxCell>
                <mxCell id="21" value="&lt;pre style=&quot;font-size: 20px&quot;&gt;&amp;lt;B&amp;gt;&lt;sub&gt;32&lt;/sub&gt;&lt;/pre&gt;" style="rounded=0;whiteSpace=wrap;html=1;" parent="1" vertex="1">
                    <mxGeometry x="400" y="460" width="80" height="40" as="geometry"/>
                </mxCell>
                <mxCell id="23" value="&lt;pre style=&quot;font-size: 20px&quot;&gt;&lt;pre&gt;&amp;lt;A&amp;gt; → &amp;lt;B&amp;gt; c &amp;lt;B&amp;gt; d •&lt;/pre&gt;&lt;/pre&gt;" style="rounded=0;whiteSpace=wrap;html=1;align=left;" parent="1" vertex="1">
                    <mxGeometry x="400" y="620" width="240" height="40" as="geometry"/>
                </mxCell>
                <mxCell id="24" value="&lt;pre style=&quot;font-size: 20px&quot;&gt;d&lt;sub&gt;3&lt;/sub&gt;&lt;/pre&gt;" style="rounded=0;whiteSpace=wrap;html=1;" parent="1" vertex="1">
                    <mxGeometry x="400" y="580" width="80" height="40" as="geometry"/>
                </mxCell>
                <mxCell id="31" value="&amp;lt;B&amp;gt;" style="edgeStyle=none;html=1;entryX=0;entryY=0.5;entryDx=0;entryDy=0;fontFamily=Courier New;fontSize=20;" parent="1" source="26" target="29" edge="1">
                    <mxGeometry relative="1" as="geometry"/>
                </mxCell>
                <mxCell id="26" value="&lt;pre style=&quot;font-size: 20px&quot;&gt;&lt;pre&gt;&amp;lt;S&amp;gt; → &amp;lt;A&amp;gt; a • &amp;lt;B&amp;gt; b&lt;br/&gt;&amp;lt;B&amp;gt; → •&lt;/pre&gt;&lt;/pre&gt;" style="rounded=0;whiteSpace=wrap;html=1;align=left;" parent="1" vertex="1">
                    <mxGeometry x="720" y="125" width="240" height="70" as="geometry"/>
                </mxCell>
                <mxCell id="27" value="&lt;pre style=&quot;font-size: 20px&quot;&gt;a&lt;sub&gt;2&lt;/sub&gt;&lt;/pre&gt;" style="rounded=0;whiteSpace=wrap;html=1;" parent="1" vertex="1">
                    <mxGeometry x="720" y="85" width="80" height="40" as="geometry"/>
                </mxCell>
                <mxCell id="34" value="b" style="edgeStyle=none;html=1;entryX=0.5;entryY=0;entryDx=0;entryDy=0;fontFamily=Courier New;fontSize=20;" parent="1" source="29" target="32" edge="1">
                    <mxGeometry relative="1" as="geometry"/>
                </mxCell>
                <mxCell id="29" value="&lt;pre style=&quot;font-size: 20px&quot;&gt;&lt;pre&gt;&amp;lt;S&amp;gt; → &amp;lt;A&amp;gt; a &amp;lt;B&amp;gt; • b&lt;br&gt;&lt;/pre&gt;&lt;/pre&gt;" style="rounded=0;whiteSpace=wrap;html=1;align=left;" parent="1" vertex="1">
                    <mxGeometry x="1035" y="135" width="240" height="45" as="geometry"/>
                </mxCell>
                <mxCell id="30" value="&lt;pre style=&quot;font-size: 20px&quot;&gt;&amp;lt;B&amp;gt;&lt;sub&gt;2&lt;/sub&gt;&lt;/pre&gt;" style="rounded=0;whiteSpace=wrap;html=1;" parent="1" vertex="1">
                    <mxGeometry x="1035" y="95" width="80" height="40" as="geometry"/>
                </mxCell>
                <mxCell id="32" value="&lt;pre style=&quot;font-size: 20px&quot;&gt;&lt;pre&gt;&amp;lt;S&amp;gt; → &amp;lt;A&amp;gt; a &amp;lt;B&amp;gt; b •&lt;br&gt;&lt;/pre&gt;&lt;/pre&gt;" style="rounded=0;whiteSpace=wrap;html=1;align=left;" parent="1" vertex="1">
                    <mxGeometry x="1035" y="270" width="240" height="45" as="geometry"/>
                </mxCell>
                <mxCell id="33" value="&lt;pre style=&quot;font-size: 20px&quot;&gt;b&lt;sub&gt;2&lt;/sub&gt;&lt;/pre&gt;" style="rounded=0;whiteSpace=wrap;html=1;" parent="1" vertex="1">
                    <mxGeometry x="1035" y="230" width="80" height="40" as="geometry"/>
                </mxCell>
                <mxCell id="40" value="&amp;lt;B&amp;gt;" style="edgeStyle=none;html=1;exitX=0;exitY=0.25;exitDx=0;exitDy=0;entryX=1;entryY=0.5;entryDx=0;entryDy=0;fontFamily=Courier New;fontSize=20;" parent="1" source="35" target="7" edge="1">
                    <mxGeometry x="0.1556" relative="1" as="geometry">
                        <Array as="points">
                            <mxPoint x="480" y="430"/>
                            <mxPoint x="480" y="380"/>
                        </Array>
                        <mxPoint as="offset"/>
                    </mxGeometry>
                </mxCell>
                <mxCell id="43" value="&amp;lt;A&amp;gt;" style="edgeStyle=none;html=1;entryX=0;entryY=0.5;entryDx=0;entryDy=0;fontFamily=Courier New;fontSize=20;" parent="1" source="35" target="41" edge="1">
                    <mxGeometry relative="1" as="geometry"/>
                </mxCell>
                <mxCell id="35" value="&lt;pre style=&quot;font-size: 20px&quot;&gt;&lt;pre&gt;&amp;lt;S&amp;gt; → &amp;lt;S&amp;gt; b • &amp;lt;A&amp;gt;&lt;br&gt;&amp;lt;A&amp;gt; → • &amp;lt;B&amp;gt; c &amp;lt;B&amp;gt; d&lt;br&gt;&amp;lt;A&amp;gt; → •&lt;br&gt;&amp;lt;B&amp;gt; → •&lt;br&gt;&lt;/pre&gt;&lt;/pre&gt;" style="rounded=0;whiteSpace=wrap;html=1;align=left;" parent="1" vertex="1">
                    <mxGeometry x="720" y="400" width="240" height="120" as="geometry"/>
                </mxCell>
                <mxCell id="36" value="&lt;pre style=&quot;font-size: 20px&quot;&gt;b&lt;sub&gt;1&lt;/sub&gt;&lt;/pre&gt;" style="rounded=0;whiteSpace=wrap;html=1;" parent="1" vertex="1">
                    <mxGeometry x="720" y="360" width="80" height="40" as="geometry"/>
                </mxCell>
                <mxCell id="41" value="&lt;pre style=&quot;font-size: 20px&quot;&gt;&lt;pre&gt;&amp;lt;S&amp;gt; → &amp;lt;S&amp;gt; b &amp;lt;A&amp;gt; •&lt;br&gt;&lt;/pre&gt;&lt;/pre&gt;" style="rounded=0;whiteSpace=wrap;html=1;align=left;" parent="1" vertex="1">
                    <mxGeometry x="1040" y="440" width="240" height="45" as="geometry"/>
                </mxCell>
                <mxCell id="42" value="&lt;pre style=&quot;font-size: 20px&quot;&gt;&amp;lt;A&amp;gt;&lt;sub&gt;1&lt;/sub&gt;&lt;/pre&gt;" style="rounded=0;whiteSpace=wrap;html=1;" parent="1" vertex="1">
                    <mxGeometry x="1040" y="400" width="80" height="40" as="geometry"/>
                </mxCell>
            </root>
        </mxGraphModel>
    </diagram>
</mxfile>
